<svg width="24" height="24" viewBox="0 0 24 24" fill="none" xmlns="http://www.w3.org/2000/svg">
<path d="M21.7068 19.2H2.29343C2.10955 19.2 1.9332 19.1157 1.80317 18.9657C1.67315 18.8156 1.6001 18.6121 1.6001 18.4C1.6001 18.1878 1.67315 17.9843 1.80317 17.8343C1.9332 17.6843 2.10955 17.6 2.29343 17.6H21.7068C21.8906 17.6 22.067 17.6843 22.197 17.8343C22.3271 17.9843 22.4001 18.1878 22.4001 18.4C22.4001 18.6121 22.3271 18.8156 22.197 18.9657C22.067 19.1157 21.8906 19.2 21.7068 19.2Z" fill="white"/>
<path d="M21.7068 12.8H2.29343C2.10955 12.8 1.9332 12.7157 1.80317 12.5657C1.67315 12.4157 1.6001 12.2122 1.6001 12C1.6001 11.7878 1.67315 11.5844 1.80317 11.4343C1.9332 11.2843 2.10955 11.2 2.29343 11.2H21.7068C21.8906 11.2 22.067 11.2843 22.197 11.4343C22.3271 11.5844 22.4001 11.7878 22.4001 12C22.4001 12.2122 22.3271 12.4157 22.197 12.5657C22.067 12.7157 21.8906 12.8 21.7068 12.8Z" fill="white"/>
<path d="M21.7068 6.39999H2.29343C2.10955 6.39999 1.9332 6.3157 1.80317 6.16567C1.67315 6.01564 1.6001 5.81216 1.6001 5.59999C1.6001 5.38781 1.67315 5.18433 1.80317 5.0343C1.9332 4.88427 2.10955 4.79999 2.29343 4.79999H21.7068C21.8906 4.79999 22.067 4.88427 22.197 5.0343C22.3271 5.18433 22.4001 5.38781 22.4001 5.59999C22.4001 5.81216 22.3271 6.01564 22.197 6.16567C22.067 6.3157 21.8906 6.39999 21.7068 6.39999Z" fill="white"/>
</svg>
