<svg width="42" height="33" viewBox="0 0 42 33" fill="none" xmlns="http://www.w3.org/2000/svg">
<path d="M14 15.25H3.6925C4.01774 13.0841 4.79113 11.0098 5.96328 9.15971C7.13543 7.30958 8.68057 5.72425 10.5 4.505L13.6325 2.405L11.7075 -0.5L8.575 1.6C5.93824 3.35713 3.77599 5.73798 2.28013 8.53127C0.784273 11.3246 0.0010624 14.4439 0 17.6125V29.25C0 30.1783 0.368749 31.0685 1.02513 31.7249C1.6815 32.3812 2.57174 32.75 3.5 32.75H14C14.9283 32.75 15.8185 32.3812 16.4749 31.7249C17.1313 31.0685 17.5 30.1783 17.5 29.25V18.75C17.5 17.8217 17.1313 16.9315 16.4749 16.2751C15.8185 15.6187 14.9283 15.25 14 15.25Z" fill="#EFD9DC"/>
<path d="M38.5 15.25H28.1925C28.5177 13.0841 29.2911 11.0098 30.4633 9.15971C31.6354 7.30958 33.1806 5.72425 35 4.505L38.1325 2.405L36.225 -0.5L33.075 1.6C30.4382 3.35713 28.276 5.73798 26.7801 8.53127C25.2843 11.3246 24.5011 14.4439 24.5 17.6125V29.25C24.5 30.1783 24.8687 31.0685 25.5251 31.7249C26.1815 32.3812 27.0717 32.75 28 32.75H38.5C39.4283 32.75 40.3185 32.3812 40.9749 31.7249C41.6313 31.0685 42 30.1783 42 29.25V18.75C42 17.8217 41.6313 16.9315 40.9749 16.2751C40.3185 15.6187 39.4283 15.25 38.5 15.25Z" fill="#EFD9DC"/>
</svg>
