<svg width="180" height="32" viewBox="0 0 180 32" fill="none" xmlns="http://www.w3.org/2000/svg">
<path d="M59.8368 6.55095V9.45009H54.6447V25H51.6138V9.45009H46.3953V6.55095H59.8368ZM63.0155 14.036C63.7359 12.4019 65.0889 11.5849 67.0743 11.5849V14.6685C65.985 14.5983 65.0361 14.8618 64.2279 15.4592C63.4197 16.039 63.0155 17.0054 63.0155 18.3583V25H60.1691V11.8221H63.0155V14.036ZM78.0593 11.8221H80.9058V25H78.0593V23.3132C77.1984 24.6662 75.8367 25.3426 73.9742 25.3426C72.4631 25.3426 71.242 24.8594 70.3107 23.8931C69.3795 22.9267 68.9139 21.6001 68.9139 19.9133V11.8221H71.7603V19.6234C71.7603 20.6074 72.0239 21.3629 72.551 21.89C73.0781 22.4171 73.7985 22.6807 74.7122 22.6807C75.7137 22.6807 76.5219 22.3732 77.1369 21.7582C77.7519 21.1257 78.0593 20.1681 78.0593 18.8855V11.8221ZM86.4744 19.6234C86.6853 20.6249 87.1685 21.398 87.924 21.9427C88.6795 22.4698 89.602 22.7334 90.6914 22.7334C92.2024 22.7334 93.3357 22.1887 94.0913 21.0993L96.4369 22.4698C95.1367 24.385 93.2127 25.3426 90.665 25.3426C88.5214 25.3426 86.7907 24.6925 85.4729 23.3923C84.1551 22.0745 83.4962 20.4141 83.4962 18.4111C83.4962 16.4432 84.1464 14.8003 85.4466 13.4825C86.7468 12.1472 88.416 11.4795 90.4542 11.4795C92.3869 11.4795 93.9683 12.1559 95.1982 13.5089C96.4457 14.8618 97.0695 16.5047 97.0695 18.4374C97.0695 18.7361 97.0343 19.1314 96.964 19.6234H86.4744ZM86.4481 17.3041H94.1967C94.0034 16.2323 93.5554 15.4241 92.8525 14.8794C92.1673 14.3347 91.3591 14.0624 90.4278 14.0624C89.3736 14.0624 88.4951 14.3523 87.7922 14.9321C87.0894 15.5119 86.6414 16.3026 86.4481 17.3041Z" fill="white"/>
<path d="M111.566 6.55095H112.884V25H111.566V21.9427C111.021 22.9794 110.248 23.7964 109.247 24.3938C108.263 24.9912 107.147 25.2899 105.899 25.2899C104.002 25.2899 102.385 24.631 101.05 23.3132C99.7322 21.9779 99.0733 20.3438 99.0733 18.4111C99.0733 16.4783 99.7322 14.853 101.05 13.5352C102.385 12.1999 104.002 11.5322 105.899 11.5322C107.147 11.5322 108.263 11.8309 109.247 12.4283C110.248 13.0257 111.021 13.8427 111.566 14.8794V6.55095ZM101.999 22.3908C103.088 23.4801 104.415 24.0248 105.979 24.0248C107.542 24.0248 108.86 23.4801 109.932 22.3908C111.021 21.3014 111.566 19.9748 111.566 18.4111C111.566 16.8473 111.021 15.5207 109.932 14.4313C108.86 13.342 107.542 12.7973 105.979 12.7973C104.415 12.7973 103.088 13.342 101.999 14.4313C100.927 15.5207 100.391 16.8473 100.391 18.4111C100.391 19.9748 100.927 21.3014 101.999 22.3908ZM128.527 11.8221H129.871V25H128.527V22.0218C127.964 23.0409 127.191 23.8403 126.207 24.4202C125.223 25 124.108 25.2899 122.86 25.2899C120.98 25.2899 119.373 24.631 118.037 23.3132C116.702 21.9779 116.034 20.3438 116.034 18.4111C116.034 16.4783 116.702 14.853 118.037 13.5352C119.373 12.1999 120.98 11.5322 122.86 11.5322C124.108 11.5322 125.223 11.8221 126.207 12.4019C127.191 12.9818 127.964 13.7812 128.527 14.8003V11.8221ZM118.986 22.3908C120.075 23.4801 121.402 24.0248 122.966 24.0248C124.529 24.0248 125.847 23.4801 126.919 22.3908C127.991 21.3014 128.527 19.9748 128.527 18.4111C128.527 16.8473 127.991 15.5207 126.919 14.4313C125.847 13.342 124.529 12.7973 122.966 12.7973C121.402 12.7973 120.075 13.342 118.986 14.4313C117.914 15.5207 117.378 16.8473 117.378 18.4111C117.378 19.9748 117.914 21.3014 118.986 22.3908ZM140.664 13.1135H136.737V21.6792C136.737 22.4347 136.878 22.9794 137.159 23.3132C137.44 23.6471 137.871 23.8403 138.451 23.8931C139.03 23.9282 139.768 23.9018 140.664 23.814V25C138.89 25.2636 137.563 25.1406 136.685 24.631C135.824 24.1215 135.393 23.1375 135.393 21.6792V13.1135H132.494V11.8221H135.393V8.52764L136.737 8.1323V11.8221H140.664V13.1135ZM148.959 11.5322C150.891 11.5322 152.455 12.2174 153.65 13.5879C154.862 14.9584 155.469 16.5837 155.469 18.4638C155.469 18.534 155.46 18.6395 155.442 18.78C155.442 18.9206 155.442 19.026 155.442 19.0963H143.503C143.661 20.5722 144.25 21.767 145.269 22.6807C146.305 23.5768 147.579 24.0248 149.09 24.0248C150.145 24.0248 151.067 23.8052 151.858 23.3659C152.648 22.9267 153.246 22.3469 153.65 21.6265L154.81 22.3117C154.265 23.2254 153.492 23.9546 152.49 24.4992C151.489 25.0264 150.347 25.2899 149.064 25.2899C147.043 25.2899 145.383 24.6486 144.083 23.3659C142.783 22.0657 142.132 20.4141 142.132 18.4111C142.132 16.4432 142.765 14.8091 144.03 13.5089C145.313 12.1911 146.956 11.5322 148.959 11.5322ZM148.959 12.7973C147.465 12.7973 146.218 13.2629 145.216 14.1941C144.215 15.1254 143.644 16.3289 143.503 17.8049H154.098C153.957 16.2411 153.395 15.0199 152.411 14.1414C151.445 13.2453 150.294 12.7973 148.959 12.7973ZM158.93 15.2747C158.93 15.9248 159.202 16.4344 159.747 16.8034C160.292 17.1723 160.959 17.4535 161.75 17.6467C162.541 17.8224 163.323 18.0245 164.096 18.2529C164.886 18.4813 165.554 18.8679 166.099 19.4126C166.643 19.9397 166.916 20.6513 166.916 21.5474C166.916 22.6368 166.477 23.5329 165.598 24.2357C164.737 24.9385 163.604 25.2899 162.198 25.2899C160.933 25.2899 159.861 25.0264 158.983 24.4992C158.122 23.9546 157.524 23.2429 157.191 22.3644L158.324 21.7055C158.57 22.4259 159.027 22.997 159.694 23.4187C160.38 23.8228 161.214 24.0248 162.198 24.0248C163.182 24.0248 163.99 23.814 164.623 23.3923C165.273 22.953 165.598 22.3381 165.598 21.5474C165.598 20.8973 165.326 20.379 164.781 19.9924C164.236 19.6059 163.569 19.3247 162.778 19.149C161.987 18.9557 161.197 18.7449 160.406 18.5165C159.633 18.2881 158.974 17.9103 158.429 17.3832C157.885 16.8561 157.612 16.1532 157.612 15.2747C157.612 14.2205 158.025 13.3332 158.851 12.6128C159.694 11.8924 160.775 11.5322 162.093 11.5322C163.147 11.5322 164.061 11.7694 164.834 12.2438C165.624 12.7182 166.204 13.3595 166.573 14.1678L165.466 14.8003C165.203 14.1502 164.763 13.6582 164.148 13.3244C163.533 12.973 162.848 12.7973 162.093 12.7973C161.197 12.7973 160.441 13.0257 159.826 13.4825C159.229 13.9218 158.93 14.5192 158.93 15.2747Z" fill="#FF0642"/>
<path d="M24.2377 16.6682C25.178 16.4571 26.2379 16.0798 27.1927 15.4297C27.1927 15.4297 30.6544 15.0968 32.2112 14.0221C33.0636 14.1871 33.9347 14.3201 34.8029 14.345C33.8449 16.3563 30.0129 18.2252 27.7682 17.4606C26.0433 16.8637 24.2377 16.6682 24.2377 16.6682Z" fill="#400505"/>
<path d="M32.2253 14.0912C32.0393 14.2204 31.7943 14.3374 31.5493 14.4544C29.8527 15.241 27.2022 15.505 27.2022 15.505C26.2465 16.158 25.1856 16.537 24.2445 16.749C22.5768 17.1457 21.2351 17.0222 21.2351 17.0222C18.8336 18.5621 15.1901 18.5593 15.1901 18.5593C14.7042 19.2021 13.3292 19.5517 12.4255 19.6995C11.9254 19.7993 11.5996 19.8275 11.5996 19.8275C13.8268 17.8673 14.1905 15.8071 15.825 15.3915C17.6929 14.9165 19.1728 16.3167 21.2585 15.4311C23.3442 14.5455 24.2871 13.1579 26.0729 12.7858C27.3067 12.5267 29.6513 13.5431 32.2253 14.0912Z" fill="#E0F8FF"/>
<path d="M37.4207 13.954C37.4236 14.062 37.4336 14.1955 37.4106 14.3101C37.3376 18.4625 34.8041 22.5582 29.36 24.6171C23.7416 26.7473 19.8246 24.3942 17.3874 23.2437C14.4679 21.8618 10.4233 23.0766 8.1802 23.1008C6.77212 23.1311 5.70541 22.5038 4.94389 22.0712C4.91797 22.0777 4.91078 22.0523 4.91078 22.0523C4.48035 21.8078 4.14206 21.5943 3.90161 21.628C4.32348 21.5484 4.68917 21.5645 5.05486 21.5807C5.19883 21.5986 5.36872 21.61 5.51269 21.6279C6.76093 21.7197 7.87388 21.6282 10.4282 20.5461C10.8732 20.3518 11.19 19.9995 11.5212 19.6981C11.5212 19.6981 14.3835 19.4083 15.1338 18.4295C15.1338 18.4295 18.7735 18.4323 21.1725 16.9C21.1725 16.9 22.5129 17.0228 24.1787 16.6281C24.1787 16.6281 24.6625 16.6687 25.3708 16.8157C26.0201 16.9504 26.8465 17.1218 27.6829 17.4267C29.9345 18.2163 33.7661 16.3483 34.7168 14.3125C34.8277 14.3116 34.9385 14.3107 35.0235 14.3164C35.2193 14.3212 35.382 14.3072 35.5778 14.312C36.3466 14.2804 36.9427 14.1294 37.4207 13.954Z" fill="#CA0334"/>
<path opacity="0.32" d="M25.4406 16.8977C23.7964 17.482 21.2092 17.4835 21.2092 17.4835C19.758 18.952 15.1603 19.0274 15.1603 19.0274C14.3525 20.112 11.2805 20.5666 11.2805 20.5666C8.22108 23.2416 5.23744 22.3286 4.97932 22.2023C4.95336 22.2089 4.94615 22.1833 4.94615 22.1833C5.15098 22.0212 5.33705 21.8914 5.54908 21.7549C6.79942 21.8475 7.91424 21.7552 10.4729 20.6629C10.9186 20.4668 11.2359 20.1113 11.5677 19.807C11.5677 19.807 14.4348 19.5145 15.1864 18.5266C15.1864 18.5266 18.8322 18.5294 21.2352 16.9828C21.2352 16.9828 22.5779 17.1068 24.2465 16.7083C24.2206 16.715 24.7383 16.775 25.4406 16.8977Z" fill="#220101"/>
<path opacity="0.15" d="M37.4205 13.9495C37.4234 14.0575 37.4334 14.191 37.4103 14.3057C37.3374 18.4593 34.8037 22.5563 29.3591 24.6157C23.7403 26.7466 19.823 24.3928 17.3856 23.2419C14.4659 21.8596 10.421 23.0748 8.17771 23.099C6.76952 23.1293 5.67681 22.5084 4.90804 22.0502C4.47758 21.8056 4.13926 21.5921 3.89879 21.6258C4.32069 21.5461 4.68641 21.5623 5.05213 21.5784C6.5294 21.6939 7.54161 21.7367 10.4187 20.5181C10.8637 20.3238 11.1805 19.9714 11.5118 19.6699C11.4297 19.7723 10.1018 21.3601 14.0844 21.4938C18.211 21.6454 18.8546 21.5639 22.4367 22.8328C26.0188 24.1017 32.638 23.0505 34.4992 19.4232C36.2739 15.9811 35.8625 14.2353 36.0583 14.2401C36.8085 14.2405 36.9424 14.125 37.4205 13.9495Z" fill="#220101"/>
<path d="M37.8595 13.9336C37.7373 13.9916 37.615 14.0496 37.4927 14.1077C37.0151 14.2826 36.4195 14.4332 35.7103 14.4769C35.4111 14.4983 35.1306 14.4878 34.8573 14.5027C33.9899 14.4778 33.1197 14.3453 32.2682 14.1809C29.6733 13.6436 27.3331 12.6351 26.1017 12.8921C24.3194 13.2613 23.3783 14.6382 21.2967 15.517C19.215 16.3958 17.738 15.0064 15.8736 15.4777C14.2423 15.8901 13.9153 18.0609 11.6924 20.006C11.3543 20.2813 11.0162 20.5566 10.6004 20.8515C8.01364 22.5902 5.84745 21.9988 4.37161 21.8837C4.37161 21.8837 4.72887 19.6238 5.8746 16.6223C6.25171 15.6049 6.74393 14.5042 7.33971 13.3772C9.65956 8.93985 11.8046 7.50265 13.758 7.93093C15.6854 8.36575 17.3279 9.36075 18.6645 8.39914C20.001 7.43752 21.1209 4.44249 23.3548 4.39304C24.7358 4.36939 28.8465 6.04218 32.5327 8.66299C34.6181 10.1427 36.6085 11.9718 37.8595 13.9336Z" fill="#CA0334"/>
<path opacity="0.21" d="M32.2258 14.0915C32.0398 14.2208 31.7948 14.3378 31.5498 14.4548C25.4809 12.8546 25.9248 12.8511 23.5895 14.4289C21.1318 16.0653 19.8836 16.2734 18.6124 16.1046C17.3412 15.9359 15.9016 15.0719 14.5391 17.1405C13.7605 18.3225 12.9734 19.1787 12.4255 19.7007C11.9254 19.8005 11.5997 19.8287 11.5997 19.8287C13.8269 17.8682 14.1906 15.8077 15.8251 15.392C17.6931 14.917 19.173 16.3174 21.2587 15.4317C23.3445 14.5459 24.2874 13.1581 26.0732 12.786C27.3071 12.5269 29.6518 13.5434 32.2258 14.0915Z" fill="#220101"/>
<path opacity="0.15" d="M23.322 4.37458C21.088 4.42403 19.9682 7.4191 18.6316 8.38074C17.2951 9.34237 15.6526 8.34735 13.7251 7.91252C11.7976 7.47769 9.64536 8.88961 7.30679 13.3589C4.95385 17.7776 4.33148 21.8402 4.33148 21.8402C5.80733 21.9553 7.97354 22.5467 10.5603 20.808C10.9833 20.5384 11.3473 20.2565 11.6523 19.9624C13.8752 18.0174 14.2023 15.8465 15.8336 15.4341C17.698 14.9628 19.175 16.3522 21.2566 15.4734C23.3383 14.5946 24.2794 13.2177 26.0618 12.8485C27.319 12.5849 29.6592 13.5934 32.2282 14.1373C33.0797 14.3017 33.95 14.4342 34.8174 14.459C35.0979 14.4695 35.3971 14.4481 35.6704 14.4332C36.4055 14.383 36.9751 14.239 37.4528 14.064C37.575 14.006 37.6973 13.948 37.8196 13.8899C34.4649 8.52754 25.5042 4.33822 23.322 4.37458ZM28.8713 11.8942C25.5847 10.5825 24.1218 10.7083 22.2513 12.4286C20.3809 14.149 19.0431 14.3245 16.3389 13.5978C13.6348 12.8712 12.2094 18.1131 9.52262 17.0566C6.08498 15.7018 8.7888 11.7368 8.7888 11.7368C8.85211 11.6665 8.88952 11.6028 8.92694 11.5391C9.06793 11.4492 9.15713 11.3725 9.20174 11.3341C9.61467 10.9314 10.809 9.27345 12.3354 8.58927C13.8877 7.89855 16.4909 9.7355 18.256 9.20793C20.0139 8.65505 20.4343 7.30128 21.2732 6.2485C22.1121 5.19572 23.9505 4.73097 25.235 5.24699C26.5194 5.76301 30.8688 8.08061 31.9574 9.56822C33.0388 11.0305 32.1579 13.2058 28.8713 11.8942Z" fill="#220101"/>
<path opacity="0.14" d="M12.8287 9.35739C12.8287 9.35739 10.9025 9.78921 9.51111 12.4889C8.11974 15.1886 10.7722 14.6816 12.3399 12.5043C13.9336 10.3206 15.0132 8.8604 12.8287 9.35739Z" fill="white"/>
<path opacity="0.14" d="M23.2764 6.16313C23.2764 6.16313 24.6101 4.83046 28.2071 7.3706C31.8042 9.91074 30.426 11.7663 28.3095 10.738C26.1743 9.74131 22.1918 8.07933 23.2764 6.16313Z" fill="white"/>
<path opacity="0.65" d="M28.5929 8.70718C28.5283 8.96593 28.0827 9.05134 27.8334 8.95254C27.4595 8.80434 27.4122 8.73544 26.1916 8.23494C24.6816 7.59187 24.0541 6.94181 24.8595 6.46935C25.3324 6.18847 26.6663 6.31016 28.1303 7.66531C28.4698 7.98384 28.6717 8.49871 28.5799 8.95292C28.5541 8.95943 28.5929 8.70718 28.5929 8.70718Z" fill="white"/>
<path opacity="0.65" d="M16.463 9.74073C16.463 9.74073 18.7757 10.4576 20.3726 8.7526C21.9695 7.04761 22.1094 5.68378 23.3564 5.77528C23.3564 5.77528 22.7134 5.85645 22.3191 6.71524C21.9579 7.59279 20.1836 11.2133 16.463 9.74073Z" fill="white"/>
<path opacity="0.15" d="M37.8593 13.8815C37.7369 13.9399 37.6144 13.9982 37.4919 14.0566C37.0136 14.2326 36.4171 14.384 35.7068 14.4279C35.4071 14.4495 35.1262 14.439 34.8524 14.4539C33.9837 14.4289 33.1121 14.2956 32.2592 14.1302C29.6602 13.5898 27.3164 12.5755 26.0831 12.834C24.2979 13.2054 23.3554 14.5903 21.2705 15.4741C19.1855 16.358 17.7062 14.9606 15.8389 15.4346C14.2051 15.8494 13.8775 18.0328 11.6511 19.9891C11.3125 20.266 10.9739 20.5429 10.5574 20.8396C7.96658 22.5884 5.79699 21.9935 4.31883 21.8778C4.31883 21.8778 4.67666 19.6048 5.82418 16.5858C5.86999 17.8289 6.38114 19.1448 8.33469 19.4672C12.1827 20.0997 13.7831 14.9472 15.878 14.6882C17.9729 14.4292 18.8485 15.9526 21.3167 14.7532C23.7778 13.5284 24.2679 12.3129 26.2432 12.2206C28.2184 12.1283 31.8327 14.2931 33.2189 13.3956C34.3745 12.6658 33.9183 10.4631 32.5313 8.6058C34.6128 10.0686 36.6064 11.9083 37.8593 13.8815Z" fill="#220101"/>
<path opacity="0.14" d="M33.3041 19.9067C32.69 20.5763 31.9222 21.0953 31.071 21.4186C29.9941 21.826 28.4226 22.25 27.5457 21.6048C26.0853 20.5654 25.5927 18.442 26.9929 18.6842C28.3932 18.9263 30.6202 18.6617 32.4536 17.3049C34.1014 16.0762 35.6596 17.3618 33.3041 19.9067Z" fill="white"/>
<path opacity="0.65" d="M31.8383 20.0539C31.8383 20.0539 30.9065 20.478 30.6312 19.4131C30.3558 18.3482 31.6981 18.1987 32.4606 17.2772C33.2231 16.3556 34.8151 16.7913 34.5019 17.7345C34.1959 18.7029 32.9596 19.9061 31.8383 20.0539Z" fill="white"/>
</svg>
