<svg width="11" height="14" viewBox="0 0 11 14" fill="none" xmlns="http://www.w3.org/2000/svg">
<path fill-rule="evenodd" clip-rule="evenodd" d="M5.5 1.04845C3.01867 1.04845 1 3.1852 1 5.81052C1 9.15089 4.74933 12.4053 5.5 12.5786C6.25067 12.4046 10 9.15019 10 5.81052C10 3.1852 7.98133 1.04845 5.5 1.04845ZM7.66733 5.76719C7.66733 4.51394 6.69533 3.49484 5.50067 3.49484C4.306 3.49484 3.334 4.51394 3.334 5.76719C3.334 7.01974 4.306 8.03814 5.50067 8.03814C6.69533 8.03814 7.66733 7.01974 7.66733 5.76719Z" fill="#848484"/>
<path fill-rule="evenodd" clip-rule="evenodd" d="M11 5.81052C11 2.60645 8.53267 0 5.5 0C2.46733 0 0 2.60645 0 5.81052C0 9.74921 4.304 13.6299 5.5 13.6299C6.696 13.6299 11 9.74921 11 5.81052ZM1 5.81052C1 3.1852 3.01867 1.04845 5.5 1.04845C7.98133 1.04845 10 3.1852 10 5.81052C10 9.15019 6.25067 12.4046 5.5 12.5786C4.74933 12.4053 1 9.15089 1 5.81052Z" fill="#848484"/>
</svg>
